<svg viewBox="0 0 24 24" fill="none" xmlns="http://www.w3.org/2000/svg">
  <path d="M9.27273 11.0909V16.5455C7.83432 16.5455 6.42821 16.1189 5.23222 15.3198C4.03623 14.5206 3.10406 13.3848 2.55361 12.0559C2.00315 10.727 1.85913 9.26466 2.13975 7.85389C2.42037 6.44312 3.11303 5.14724 4.13014 4.13014C5.14724 3.11303 6.44312 2.42037 7.85389 2.13975C9.26466 1.85913 10.727 2.00315 12.0559 2.55361C13.3848 3.10406 14.5206 4.03623 15.3198 5.23222C16.1189 6.42821 16.5455 7.83432 16.5455 9.27273H11.0909M9.27273 11.0909C9.27273 10.0868 10.0868 9.27273 11.0909 9.27273M9.27273 11.0909V20.1818C9.27273 21.186 10.0868 22 11.0909 22H20.1818C21.186 22 22 21.186 22 20.1818V11.0909C22 10.0868 21.186 9.27273 20.1818 9.27273H11.0909" stroke="currentColor" stroke-width="2"/>
</svg>
