<svg viewBox="0 0 24 24" fill="none" xmlns="http://www.w3.org/2000/svg">
  <path d="M21 9C21.0008 8.6831 20.9388 8.3692 20.8176 8.0764C20.6964 7.7836 20.5185 7.5177 20.294 7.294L16.706 3.706C16.4823 3.4815 16.2164 3.3036 15.9236 3.1824C15.6308 3.0612 15.3169 2.9992 15 3M21 9V19C21 19.5304 20.7893 20.0391 20.4142 20.4142C20.0391 20.7893 19.5304 21 19 21H5C4.4696 21 3.9609 20.7893 3.5858 20.4142C3.2107 20.0391 3 19.5304 3 19V5C3 4.4696 3.2107 3.9609 3.5858 3.5858C3.9609 3.2107 4.4696 3 5 3H15M21 9L16 9C15.7348 9 15.4804 8.8946 15.2929 8.7071C15.1054 8.5196 15 8.2652 15 8V3" stroke="currentColor" stroke-width="2" stroke-linecap="round" stroke-linejoin="round"/>
</svg>
