<svg viewBox="0 0 24 24" fill="none" xmlns="http://www.w3.org/2000/svg">
  <path d="M4.32237 3.00596C4.57398 2.97736 4.82878 3.01403 5.06358 3.11143L21.0646 9.61045H21.0655C21.321 9.71452 21.542 9.88703 21.7052 10.1075L21.7716 10.2052L21.8302 10.3067C21.9569 10.55 22.0145 10.8245 21.9962 11.0997C21.9753 11.4141 21.8554 11.7144 21.6544 11.9571C21.4534 12.1997 21.181 12.3731 20.8761 12.4522H20.8751L14.7511 14.0323H14.7501C14.5772 14.0768 14.4195 14.167 14.2931 14.2931C14.1666 14.4192 14.0762 14.5772 14.0314 14.7501L14.0304 14.7491L12.4522 20.8741V20.8761C12.3731 21.181 12.1997 21.4534 11.9571 21.6544C11.7144 21.8554 11.4141 21.9753 11.0997 21.9962C10.7854 22.0171 10.4723 21.9385 10.2052 21.7716C9.93796 21.6045 9.72936 21.3574 9.61045 21.0655V21.0646L3.11045 5.06455L3.11143 5.06358C2.99967 4.79418 2.96791 4.49788 3.02256 4.21104L3.04795 4.10166C3.11592 3.84983 3.24833 3.61906 3.43369 3.43369L3.5167 3.35752C3.71442 3.18756 3.95365 3.07166 4.21104 3.02256L4.32237 3.00596Z" stroke="currentColor" stroke-width="2" stroke-linecap="round" stroke-linejoin="round"/>
</svg>
