<svg viewBox="0 0 24 24" fill="none" xmlns="http://www.w3.org/2000/svg">
  <path d="M21 9.00001C21.0008 8.68312 20.9388 8.36921 20.8176 8.0764C20.6964 7.78359 20.5185 7.51768 20.294 7.29401L16.706 3.70601C16.4823 3.48153 16.2164 3.30357 15.9236 3.18239C15.6308 3.06122 15.3169 2.99923 15 3.00001M21 9.00001V19C21 19.5304 20.7893 20.0391 20.4142 20.4142C20.0391 20.7893 19.5304 21 19 21H5C4.46957 21 3.96086 20.7893 3.58579 20.4142C3.21071 20.0391 3 19.5304 3 19V5.00001C3 4.46957 3.21071 3.96087 3.58579 3.58579C3.96086 3.21072 4.46957 3.00001 5 3.00001H15M21 9.00001L16 9C15.7348 9 15.4804 8.89464 15.2929 8.70711C15.1054 8.51957 15 8.26522 15 8V3.00001" stroke="currentColor" stroke-width="2" stroke-linecap="round" stroke-linejoin="round"/>
</svg>
