<svg viewBox="0 0 16 16" fill="none" xmlns="http://www.w3.org/2000/svg">
  <path d="M8.19727 2.30941L10.2106 4.94674M1.99997 7.3333L13.4666 3.99997L12.9333 2.26664C12.7333 1.59997 12 1.19997 11.2666 1.39997L2.26664 4.06664C1.59997 4.26664 1.19997 4.99997 1.39997 5.7333L1.99997 7.3333ZM1.99997 7.3333L14 7.33333V12.6667C14 13.0203 13.8595 13.3594 13.6095 13.6095C13.3594 13.8595 13.0203 14 12.6667 14H3.33333C2.97971 14 2.64057 13.8595 2.39052 13.6095C2.14048 13.3594 2 13.0203 2 12.6667L1.99997 7.3333ZM4.11995 3.51725L6.18662 6.11659" stroke="currentColor" stroke-linecap="round" stroke-linejoin="round"/>
</svg>
