<svg viewBox="0 0 16 16" fill="none" xmlns="http://www.w3.org/2000/svg">
  <path d="M5.28646 1.5L5.51302 1.51367C5.73765 1.54164 5.95616 1.61172 6.15658 1.71973C6.42183 1.86276 6.64726 2.06922 6.8138 2.32031H6.81478L7.35482 3.12012L7.35775 3.125C7.43433 3.24129 7.53859 3.33685 7.66146 3.40234C7.78448 3.46786 7.92248 3.50137 8.06185 3.5H13.3333C13.8195 3.5 14.2854 3.69339 14.6292 4.03711C14.973 4.38085 15.1663 4.84689 15.1663 5.33301V12C15.1663 12.4862 14.973 12.9521 14.6292 13.2959C14.2854 13.6397 13.8196 13.833 13.3333 13.833H2.66634C2.18023 13.8329 1.71418 13.6396 1.37044 13.2959C1.02673 12.9521 0.833334 12.4862 0.833333 12V3.33301C0.83342 2.8469 1.0267 2.38085 1.37044 2.03711C1.71418 1.69337 2.18023 1.50009 2.66634 1.5H5.28646Z" stroke="currentColor" stroke-linecap="round" stroke-linejoin="round"/>
</svg>
